<?xml version="1.0" encoding="UTF-8"?>
<svg xmlns="http://www.w3.org/2000/svg" xmlns:xlink="http://www.w3.org/1999/xlink" width="50pt" height="50pt" viewBox="0 0 50 50" version="1.1">
<g id="surface17996506">
<path style=" stroke:none;fill-rule:nonzero;fill:rgb(100%,100%,100%);fill-opacity:1;" d="M 49.15625 20.882812 L 42.710938 19.828125 C 42.335938 18.535156 41.820312 17.292969 41.175781 16.117188 L 44.933594 10.757812 C 45.238281 10.324219 45.1875 9.734375 44.8125 9.359375 L 40.574219 5.121094 C 40.195312 4.746094 39.601562 4.695312 39.167969 5.007812 L 33.886719 8.804688 C 32.699219 8.148438 31.449219 7.625 30.148438 7.25 L 29.023438 0.832031 C 28.929688 0.3125 28.480469 -0.0703125 27.949219 -0.0703125 L 21.953125 -0.0703125 C 21.421875 -0.0703125 20.964844 0.316406 20.878906 0.84375 L 19.835938 7.226562 C 18.527344 7.601562 17.273438 8.117188 16.089844 8.765625 L 10.824219 5.003906 C 10.390625 4.691406 9.800781 4.742188 9.421875 5.121094 L 5.183594 9.355469 C 4.808594 9.730469 4.757812 10.320312 5.0625 10.75 L 8.765625 16.050781 C 8.105469 17.246094 7.582031 18.507812 7.199219 19.824219 L 0.84375 20.882812 C 0.316406 20.96875 -0.0664062 21.425781 -0.0664062 21.957031 L -0.0664062 27.953125 C -0.0664062 28.480469 0.3125 28.933594 0.832031 29.023438 L 7.1875 30.152344 C 7.566406 31.464844 8.09375 32.726562 8.753906 33.925781 L 5.003906 39.171875 C 4.695312 39.601562 4.742188 40.195312 5.121094 40.574219 L 9.355469 44.816406 C 9.730469 45.191406 10.320312 45.242188 10.753906 44.9375 L 16.0625 41.21875 C 17.253906 41.875 18.511719 42.394531 19.816406 42.773438 L 20.882812 49.160156 C 20.96875 49.683594 21.421875 50.070312 21.953125 50.070312 L 27.949219 50.070312 C 28.476562 50.070312 28.929688 49.691406 29.023438 49.171875 L 30.160156 42.75 C 31.46875 42.367188 32.71875 41.84375 33.898438 41.1875 L 39.246094 44.9375 C 39.679688 45.242188 40.269531 45.191406 40.644531 44.816406 L 44.882812 40.574219 C 45.257812 40.195312 45.308594 39.601562 44.996094 39.167969 L 41.183594 33.871094 C 41.828125 32.695312 42.34375 31.449219 42.714844 30.15625 L 49.167969 29.023438 C 49.6875 28.933594 50.066406 28.480469 50.066406 27.953125 L 50.066406 21.957031 C 50.070312 21.421875 49.683594 20.96875 49.15625 20.882812 Z M 25 32.628906 C 20.785156 32.628906 17.371094 29.214844 17.371094 25 C 17.371094 20.785156 20.785156 17.371094 25 17.371094 C 29.214844 17.371094 32.628906 20.785156 32.628906 25 C 32.628906 29.214844 29.214844 32.628906 25 32.628906 Z M 25 32.628906 "/>
</g>
</svg>
